<mxfile host="65bd71144e">
    <diagram id="OSpzMRFya0VDMqlgsKy0" name="Simpanan">
        <mxGraphModel dx="882" dy="541" grid="1" gridSize="10" guides="1" tooltips="1" connect="1" arrows="1" fold="1" page="1" pageScale="1" pageWidth="827" pageHeight="1169" math="0" shadow="0">
            <root>
                <mxCell id="0"/>
                <mxCell id="1" parent="0"/>
                <mxCell id="2" value="" style="shape=table;startSize=0;container=1;collapsible=0;childLayout=tableLayout;fontSize=18;fontStyle=1;strokeWidth=2;" vertex="1" parent="1">
                    <mxGeometry x="108" y="80" width="712" height="480" as="geometry"/>
                </mxCell>
                <mxCell id="3" value="" style="shape=tableRow;horizontal=0;startSize=0;swimlaneHead=0;swimlaneBody=0;strokeColor=inherit;top=0;left=0;bottom=0;right=0;collapsible=0;dropTarget=0;fillColor=none;points=[[0,0.5],[1,0.5]];portConstraint=eastwest;fontSize=16;" vertex="1" parent="2">
                    <mxGeometry width="712" height="60" as="geometry"/>
                </mxCell>
                <mxCell id="fNrrZDgymLbOFoV5J98R-16" value="Sistem" style="shape=partialRectangle;html=1;whiteSpace=wrap;connectable=0;strokeColor=inherit;overflow=hidden;fillColor=none;top=0;left=0;bottom=0;right=0;pointerEvents=1;fontSize=20;fontStyle=1" vertex="1" parent="3">
                    <mxGeometry width="180" height="60" as="geometry">
                        <mxRectangle width="180" height="60" as="alternateBounds"/>
                    </mxGeometry>
                </mxCell>
                <mxCell id="4" value="Admin" style="shape=partialRectangle;html=1;whiteSpace=wrap;connectable=0;strokeColor=inherit;overflow=hidden;fillColor=none;top=0;left=0;bottom=0;right=0;pointerEvents=1;fontSize=20;fontStyle=1" vertex="1" parent="3">
                    <mxGeometry x="180" width="272" height="60" as="geometry">
                        <mxRectangle width="272" height="60" as="alternateBounds"/>
                    </mxGeometry>
                </mxCell>
                <mxCell id="5" value="Anggota Penjual" style="shape=partialRectangle;html=1;whiteSpace=wrap;connectable=0;strokeColor=inherit;overflow=hidden;fillColor=none;top=0;left=0;bottom=0;right=0;pointerEvents=1;fontSize=20;fontStyle=1" vertex="1" parent="3">
                    <mxGeometry x="452" width="260" height="60" as="geometry">
                        <mxRectangle width="260" height="60" as="alternateBounds"/>
                    </mxGeometry>
                </mxCell>
                <mxCell id="7" value="" style="shape=tableRow;horizontal=0;startSize=0;swimlaneHead=0;swimlaneBody=0;strokeColor=inherit;top=0;left=0;bottom=0;right=0;collapsible=0;dropTarget=0;fillColor=none;points=[[0,0.5],[1,0.5]];portConstraint=eastwest;fontSize=16;" vertex="1" parent="2">
                    <mxGeometry y="60" width="712" height="420" as="geometry"/>
                </mxCell>
                <mxCell id="fNrrZDgymLbOFoV5J98R-17" style="shape=partialRectangle;html=1;whiteSpace=wrap;connectable=0;strokeColor=inherit;overflow=hidden;fillColor=none;top=0;left=0;bottom=0;right=0;pointerEvents=1;fontSize=16;" vertex="1" parent="7">
                    <mxGeometry width="180" height="420" as="geometry">
                        <mxRectangle width="180" height="420" as="alternateBounds"/>
                    </mxGeometry>
                </mxCell>
                <mxCell id="8" value="" style="shape=partialRectangle;html=1;whiteSpace=wrap;connectable=0;strokeColor=inherit;overflow=hidden;fillColor=none;top=0;left=0;bottom=0;right=0;pointerEvents=1;fontSize=16;" vertex="1" parent="7">
                    <mxGeometry x="180" width="272" height="420" as="geometry">
                        <mxRectangle width="272" height="420" as="alternateBounds"/>
                    </mxGeometry>
                </mxCell>
                <mxCell id="9" value="" style="shape=partialRectangle;html=1;whiteSpace=wrap;connectable=0;strokeColor=inherit;overflow=hidden;fillColor=none;top=0;left=0;bottom=0;right=0;pointerEvents=1;fontSize=16;" vertex="1" parent="7">
                    <mxGeometry x="452" width="260" height="420" as="geometry">
                        <mxRectangle width="260" height="420" as="alternateBounds"/>
                    </mxGeometry>
                </mxCell>
                <mxCell id="11" style="edgeStyle=none;html=1;entryX=0.5;entryY=0;entryDx=0;entryDy=0;strokeWidth=2;" edge="1" parent="1" source="12" target="14">
                    <mxGeometry relative="1" as="geometry">
                        <Array as="points">
                            <mxPoint x="414" y="190"/>
                        </Array>
                    </mxGeometry>
                </mxCell>
                <mxCell id="12" value="Membayar Simpanan" style="rounded=1;whiteSpace=wrap;html=1;fontStyle=1;fontSize=14;strokeWidth=2;" vertex="1" parent="1">
                    <mxGeometry x="630" y="161" width="140" height="60" as="geometry"/>
                </mxCell>
                <mxCell id="13" style="edgeStyle=none;html=1;strokeWidth=2;exitX=1;exitY=0.5;exitDx=0;exitDy=0;" edge="1" parent="1" source="fNrrZDgymLbOFoV5J98R-19" target="16">
                    <mxGeometry relative="1" as="geometry"/>
                </mxCell>
                <mxCell id="fNrrZDgymLbOFoV5J98R-20" value="" style="edgeStyle=none;html=1;strokeWidth=2;" edge="1" parent="1" source="14" target="fNrrZDgymLbOFoV5J98R-18">
                    <mxGeometry relative="1" as="geometry"/>
                </mxCell>
                <mxCell id="14" value="Input Form Simpanan" style="rounded=1;whiteSpace=wrap;html=1;fontStyle=1;fontSize=14;strokeWidth=2;" vertex="1" parent="1">
                    <mxGeometry x="334" y="261" width="160" height="59" as="geometry"/>
                </mxCell>
                <mxCell id="16" value="Melihat Satatus Simpanan" style="rounded=1;whiteSpace=wrap;html=1;fontStyle=1;fontSize=14;strokeWidth=2;" vertex="1" parent="1">
                    <mxGeometry x="616.5" y="440" width="167" height="59" as="geometry"/>
                </mxCell>
                <mxCell id="fNrrZDgymLbOFoV5J98R-21" value="" style="edgeStyle=orthogonalEdgeStyle;html=1;strokeWidth=2;entryX=0.5;entryY=0;entryDx=0;entryDy=0;" edge="1" parent="1" source="fNrrZDgymLbOFoV5J98R-18" target="fNrrZDgymLbOFoV5J98R-19">
                    <mxGeometry relative="1" as="geometry"/>
                </mxCell>
                <mxCell id="fNrrZDgymLbOFoV5J98R-18" value="Submit" style="rounded=1;whiteSpace=wrap;html=1;fontStyle=1;fontSize=14;strokeWidth=2;" vertex="1" parent="1">
                    <mxGeometry x="334" y="370" width="160" height="59" as="geometry"/>
                </mxCell>
                <mxCell id="fNrrZDgymLbOFoV5J98R-19" value="Simpan Data Form" style="rounded=1;whiteSpace=wrap;html=1;fontStyle=1;fontSize=14;strokeWidth=2;" vertex="1" parent="1">
                    <mxGeometry x="140" y="440" width="118" height="59" as="geometry"/>
                </mxCell>
            </root>
        </mxGraphModel>
    </diagram>
</mxfile>